<svg xmlns="http://www.w3.org/2000/svg" width="1200" height="630" viewBox="0 0 1200 630" fill="none">
  <title>Gilles Musy portfolio</title>
  <desc>Security research, AI engineering, and software systems presented through the Triple Shield identity.</desc>

  <rect width="1200" height="630" fill="#0F1216"/>
  <image
    href="social-preview-background.png"
    width="1200"
    height="630"
    preserveAspectRatio="xMidYMid slice"
    opacity="0.38"
  />
  <rect width="700" height="630" fill="#0F1216" fill-opacity="0.9"/>
  <rect x="700" width="500" height="630" fill="#0F1216" fill-opacity="0.42"/>
  <rect x="699" y="64" width="2" height="502" fill="#005EFF"/>

  <g transform="translate(70 54)">
    <g stroke="#005EFF" stroke-width="2.5" stroke-linecap="round" stroke-linejoin="round">
      <path d="M21.5 4.4 7 10.4v13.2c0 8.5 4.7 15.3 12.2 19.4"/>
      <path d="M26.5 4.4 41 10.4v13.2c0 8.5-4.7 15.3-12.2 19.4"/>
      <path d="m15.5 17.5 8.5 7 8.5-7M24 24.5v9.7"/>
    </g>
    <g fill="#005EFF">
      <rect x="14.2" y="16.2" width="2.6" height="2.6" rx="0.4"/>
      <rect x="31.2" y="16.2" width="2.6" height="2.6" rx="0.4"/>
      <rect x="22.7" y="32.9" width="2.6" height="2.6" rx="0.4"/>
    </g>
  </g>

  <g
    fill="#F1F5F7"
    font-family="Inter, 'Segoe UI', Roboto, Helvetica, Arial, sans-serif"
  >
    <text x="132" y="88" font-size="26" font-weight="700" letter-spacing="-0.5">Gilles Musy</text>
    <text x="70" y="228" font-size="56" font-weight="700" letter-spacing="-2.4">Security research.</text>
    <text x="70" y="302" font-size="56" font-weight="700" letter-spacing="-2.4">AI engineering.</text>
    <text x="70" y="376" font-size="56" font-weight="700" letter-spacing="-2.4">Software systems.</text>
  </g>

  <text
    x="70"
    y="466"
    fill="#B7C2C9"
    font-family="Inter, 'Segoe UI', Roboto, Helvetica, Arial, sans-serif"
    font-size="21"
    font-weight="400"
  >Selected projects and public evidence.</text>
  <text
    x="70"
    y="552"
    fill="#B7C2C9"
    font-family="'SFMono-Regular', Consolas, 'Liberation Mono', monospace"
    font-size="16"
    font-weight="700"
    letter-spacing="1.2"
  >musyg.github.io</text>

  <g transform="translate(826 172) scale(5)">
    <g stroke="#005EFF" stroke-width="2.5" stroke-linecap="round" stroke-linejoin="round">
      <path d="M21.5 4.4 7 10.4v13.2c0 8.5 4.7 15.3 12.2 19.4"/>
      <path d="M26.5 4.4 41 10.4v13.2c0 8.5-4.7 15.3-12.2 19.4"/>
      <path d="m15.5 17.5 8.5 7 8.5-7M24 24.5v9.7"/>
    </g>
    <g fill="#005EFF">
      <rect x="14.2" y="16.2" width="2.6" height="2.6" rx="0.4"/>
      <rect x="31.2" y="16.2" width="2.6" height="2.6" rx="0.4"/>
      <rect x="22.7" y="32.9" width="2.6" height="2.6" rx="0.4"/>
    </g>
  </g>
</svg>
