<svg xmlns="http://www.w3.org/2000/svg" width="1200" height="630" viewBox="0 0 1200 630">
  <rect width="1200" height="630" fill="#0F1216" />

  <g fill="#151A21">
    <rect x="80" y="72" width="190" height="96" />
    <rect x="330" y="72" width="120" height="40" />
    <rect x="330" y="128" width="120" height="40" />
    <rect x="510" y="72" width="190" height="96" />
    <rect x="760" y="72" width="120" height="96" />
    <rect x="940" y="72" width="180" height="40" />
    <rect x="940" y="128" width="180" height="40" />

    <rect x="80" y="238" width="1040" height="154" />
    <rect x="80" y="462" width="150" height="96" />
    <rect x="258" y="462" width="150" height="96" />
    <rect x="436" y="462" width="150" height="96" />
    <rect x="614" y="462" width="150" height="96" />
    <rect x="792" y="462" width="150" height="96" />
    <rect x="970" y="462" width="150" height="96" />
  </g>

  <g fill="#005EFF">
    <rect x="48" y="118" width="32" height="4" />
    <rect x="270" y="118" width="60" height="4" />
    <rect x="450" y="118" width="60" height="4" />
    <rect x="700" y="118" width="60" height="4" />
    <rect x="880" y="118" width="60" height="4" />
    <rect x="1120" y="118" width="32" height="4" />

    <rect x="596" y="168" width="8" height="70" />
    <rect x="48" y="311" width="152" height="4" />
    <rect x="260" y="311" width="160" height="4" />
    <rect x="480" y="311" width="236" height="4" />
    <rect x="776" y="311" width="160" height="4" />
    <rect x="996" y="311" width="156" height="4" />
    <rect x="596" y="392" width="8" height="70" />

    <rect x="48" y="508" width="32" height="4" />
    <rect x="230" y="508" width="28" height="4" />
    <rect x="408" y="508" width="28" height="4" />
    <rect x="586" y="508" width="28" height="4" />
    <rect x="764" y="508" width="28" height="4" />
    <rect x="942" y="508" width="28" height="4" />
    <rect x="1120" y="508" width="32" height="4" />

    <rect x="196" y="301" width="20" height="24" />
    <rect x="416" y="301" width="20" height="24" />
    <rect x="586" y="297" width="28" height="32" />
    <rect x="712" y="301" width="20" height="24" />
    <rect x="932" y="301" width="20" height="24" />
  </g>

  <g fill="#0F1216">
    <rect x="116" y="491" width="78" height="30" />
    <rect x="294" y="491" width="78" height="30" />
    <rect x="472" y="491" width="78" height="30" />
    <rect x="650" y="491" width="78" height="30" />
    <rect x="828" y="491" width="78" height="30" />
    <rect x="1006" y="491" width="78" height="30" />
  </g>
</svg>
